<svg width="101" height="101" viewBox="0 0 101 101" fill="none" xmlns="http://www.w3.org/2000/svg">
<path d="M45.5715 0.11826C36.0008 1.08527 26.884 4.73621 19.3261 10.5974C17.0173 12.3933 13.0904 16.2613 11.1762 18.6295C5.67061 25.4578 2.07913 33.4306 0.539928 42.2916C-0.0323409 45.6859 -0.190208 53.1654 0.26366 56.619C1.1122 62.9736 2.67113 68.085 5.45354 73.5515C7.78208 78.1497 10.5053 81.9191 14.2941 85.8068C22.4637 94.1941 32.508 99.187 44.3875 100.746C47.8211 101.18 55.3001 101.042 58.714 100.45C63.8841 99.562 68.2847 98.1411 72.9023 95.8716C77.7962 93.4639 81.7429 90.6813 85.8079 86.7146C93.6421 79.0772 98.5754 69.6637 100.45 58.7109C101.042 55.2771 101.18 48.0344 100.746 44.3834C98.9306 29.5626 90.7413 16.3797 78.2303 8.15033C71.738 3.88761 64.5156 1.24315 56.8196 0.27614C54.5897 -0.000147446 47.6238 -0.0988227 45.5715 0.11826ZM47.2291 26.6221C51.0574 27.5891 53.5636 29.8586 54.7673 33.4504C55.2212 34.8318 55.2804 35.2265 55.2014 37.0816C55.1028 39.5484 54.7476 40.6338 53.1689 43.3967C51.906 45.5873 51.7678 46.4556 52.5572 47.245C53.1689 47.837 54.0372 48.0739 56.8196 48.3304C59.3257 48.5672 61.1017 48.4686 63.9433 47.9357C67.002 47.3634 69.1135 46.5345 73.2772 44.3045C74.0271 43.9098 74.8362 43.5941 75.0532 43.6335C75.665 43.7125 76.0991 44.8176 76.4543 47.245C77.5002 54.389 76.6714 59.6977 73.7508 64.6708C72.705 66.447 69.2713 69.7624 67.1993 70.9662C62.5817 73.6896 56.6814 74.9527 49.7155 74.7159C45.1769 74.558 42.3945 73.9265 38.7043 72.1898C33.2776 69.6637 29.4888 64.809 29.2323 60.0726C29.035 56.1257 30.3176 53.4417 34.0867 49.9684C36.1982 48.0344 36.652 47.245 36.3166 46.1201C36.1784 45.6859 35.6851 44.936 35.1523 44.4032C34.2446 43.4756 34.1656 43.4362 32.3502 43.1204C29.627 42.627 26.6669 41.8574 25.6803 41.3838C24.6541 40.8904 24.0621 40.0221 24.0621 39.0156C24.0621 38.0486 24.3976 37.7723 25.8776 37.496C28.6008 36.9632 31.6398 36.1146 31.9752 35.7593C32.1726 35.562 32.6067 34.7529 32.9224 33.9437C34.3827 30.4309 37.1256 27.9049 40.7369 26.7603C42.7694 26.109 45.0782 26.0695 47.2291 26.6221Z" fill="black"/>
<path d="M47.2291 26.6221C51.0574 27.5891 53.5636 29.8586 54.7673 33.4504C55.2212 34.8318 55.2804 35.2265 55.2014 37.0816C55.1028 39.5484 54.7476 40.6338 53.1689 43.3967C51.906 45.5873 51.7678 46.4556 52.5572 47.245C53.1689 47.837 54.0372 48.0739 56.8196 48.3304C59.3257 48.5672 61.1017 48.4686 63.9433 47.9357C67.002 47.3634 69.1135 46.5345 73.2772 44.3045C74.0271 43.9098 74.8362 43.5941 75.0532 43.6335C75.665 43.7125 76.0991 44.8176 76.4543 47.245C77.5002 54.389 76.6714 59.6977 73.7508 64.6708C72.705 66.447 69.2713 69.7624 67.1993 70.9662C62.5817 73.6896 56.6814 74.9527 49.7155 74.7159C45.1769 74.558 42.3945 73.9265 38.7043 72.1898C33.2776 69.6637 29.4888 64.809 29.2323 60.0726C29.035 56.1257 30.3176 53.4417 34.0867 49.9684C36.1982 48.0344 36.652 47.245 36.3166 46.1201C36.1784 45.6859 35.6851 44.936 35.1523 44.4032C34.2446 43.4756 34.1656 43.4362 32.3502 43.1204C29.627 42.627 26.6669 41.8574 25.6803 41.3838C24.6541 40.8904 24.0621 40.0221 24.0621 39.0156C24.0621 38.0486 24.3976 37.7723 25.8776 37.496C28.6008 36.9632 31.6398 36.1146 31.9752 35.7593C32.1726 35.562 32.6067 34.7529 32.9224 33.9437C34.3827 30.4309 37.1256 27.9049 40.7369 26.7603C42.7694 26.109 45.0782 26.0695 47.2291 26.6221Z" fill="white"/>
<path d="M37.7572 32.8191C36.9087 33.194 36.4943 33.865 36.4943 34.8319C36.4943 36.3514 37.8953 37.3578 39.3753 36.8842C41.3092 36.233 41.2697 33.2927 39.3161 32.7599C38.4084 32.5034 38.5071 32.5034 37.7572 32.8191Z" fill="black"/>
</svg>
